<svg xmlns="http://www.w3.org/2000/svg" width="1200" height="630" viewBox="0 0 1200 630" role="img" aria-label="RoboSkin robot skin and tactile AI">
  <defs>
    <radialGradient id="a" cx="35%" cy="20%" r="70%">
      <stop offset="0" stop-color="#1f6feb" stop-opacity=".55"/>
      <stop offset=".5" stop-color="#0d1016"/>
      <stop offset="1" stop-color="#06080c"/>
    </radialGradient>
    <linearGradient id="b" x1="0" x2="1">
      <stop offset="0" stop-color="#62a8ff"/>
      <stop offset="1" stop-color="#7dd3fc"/>
    </linearGradient>
  </defs>
  <rect width="1200" height="630" fill="url(#a)"/>
  <g opacity=".22">
    <path d="M0 520c210-120 400-110 570-40s360 70 630-90" fill="none" stroke="#7dd3fc" stroke-width="2"/>
    <path d="M0 560c210-120 400-110 570-40s360 70 630-90" fill="none" stroke="#62a8ff" stroke-width="2"/>
  </g>
  <g transform="translate(720 135)">
    <rect width="300" height="300" rx="42" fill="#0b0d12" stroke="#263244"/>
    <g transform="translate(52 52)">
      <rect width="36" height="36" rx="10" fill="#142033" stroke="#31567f"/>
      <rect x="52" width="36" height="36" rx="10" fill="#172b46" stroke="#62a8ff"/>
      <rect x="104" width="36" height="36" rx="10" fill="#142033" stroke="#31567f"/>
      <rect x="156" width="36" height="36" rx="10" fill="#172b46" stroke="#62a8ff"/>
      <rect y="52" width="36" height="36" rx="10" fill="#172b46" stroke="#62a8ff"/>
      <rect x="52" y="52" width="36" height="36" rx="10" fill="#142033" stroke="#31567f"/>
      <rect x="104" y="52" width="36" height="36" rx="10" fill="#172b46" stroke="#62a8ff"/>
      <rect x="156" y="52" width="36" height="36" rx="10" fill="#142033" stroke="#31567f"/>
      <rect y="104" width="36" height="36" rx="10" fill="#142033" stroke="#31567f"/>
      <rect x="52" y="104" width="36" height="36" rx="10" fill="#172b46" stroke="#62a8ff"/>
      <rect x="104" y="104" width="36" height="36" rx="10" fill="#142033" stroke="#31567f"/>
      <rect x="156" y="104" width="36" height="36" rx="10" fill="#172b46" stroke="#62a8ff"/>
      <rect y="156" width="36" height="36" rx="10" fill="#172b46" stroke="#62a8ff"/>
      <rect x="52" y="156" width="36" height="36" rx="10" fill="#142033" stroke="#31567f"/>
      <rect x="104" y="156" width="36" height="36" rx="10" fill="#172b46" stroke="#62a8ff"/>
      <rect x="156" y="156" width="36" height="36" rx="10" fill="#142033" stroke="#31567f"/>
    </g>
  </g>
  <text x="90" y="180" fill="#7dd3fc" font-family="Arial, sans-serif" font-size="28" letter-spacing="6">TACTILE AI</text>
  <text x="90" y="270" fill="#ffffff" font-family="Arial, sans-serif" font-size="76" font-weight="700">RoboSkin.ai</text>
  <text x="90" y="340" fill="#d7e7ff" font-family="Arial, sans-serif" font-size="38">Robot skin for humanoid hands,</text>
  <text x="90" y="390" fill="#d7e7ff" font-family="Arial, sans-serif" font-size="38">grippers, and tactile AI pilots.</text>
  <rect x="90" y="455" width="330" height="58" rx="18" fill="url(#b)"/>
  <text x="120" y="493" fill="#06111f" font-family="Arial, sans-serif" font-size="24" font-weight="700">Request technical material</text>
</svg>
