<svg xmlns="http://www.w3.org/2000/svg" width="1200" height="675" viewBox="0 0 1200 675"><rect width="1200" height="675" fill="#11161b"/><g font-family="Arial, sans-serif"><text x="62" y="61" fill="#f19a75" font-size="23" letter-spacing="3">ROBOSKIN.AI / OPEN HARDWARE</text><text x="60" y="139" fill="#f3f0e9" font-size="43" font-weight="bold">When wrist geometry redirects stiffness</text><text x="62" y="184" fill="#abb5bd" font-size="25">Three skeletons isolate the mechanical role of the carpus</text><rect x="60" y="246" width="318" height="236" rx="14" fill="#22333b"/><text x="90" y="294" fill="#f19a75" font-size="20">8 MOVABLE BONES</text><g fill="#f3f0e9" stroke="#11161b" stroke-width="4"><ellipse cx="151" cy="355" rx="31" ry="22"/><ellipse cx="214" cy="342" rx="29" ry="23"/><ellipse cx="275" cy="355" rx="31" ry="22"/><ellipse cx="171" cy="405" rx="29" ry="21"/><ellipse cx="233" cy="399" rx="29" ry="21"/><ellipse cx="294" cy="407" rx="29" ry="21"/></g><text x="96" y="455" fill="#b8c2c9" font-size="20">anatomical carpal coupling</text><rect x="442" y="246" width="318" height="236" rx="14" fill="#283b41"/><text x="472" y="294" fill="#f19a75" font-size="20">FUSED PROXIMAL ROW</text><path d="M500 365 q80-72 160 0 q-80 76-160 0z" fill="#f3f0e9"/><path d="M500 365 H660" stroke="#f19a75" stroke-width="6"/><text x="482" y="455" fill="#b8c2c9" font-size="20">reduced stiffness anisotropy</text><rect x="824" y="246" width="316" height="236" rx="14" fill="#4e3027"/><text x="854" y="294" fill="#ffddca" font-size="20">ELLIPSOIDAL JOINT</text><ellipse cx="982" cy="374" rx="92" ry="54" fill="none" stroke="#f3f0e9" stroke-width="11"/><path d="M900 410 L1068 333" stroke="#f19a75" stroke-width="7"/><text x="858" y="455" fill="#ffddca" font-size="20">stiff, but little reorientation</text><path d="M60 550 H1140" stroke="#49535c"/><text x="62" y="595" fill="#f3f0e9" font-size="24">CAD, printable parts, firmware and measured data are public.</text><text x="62" y="632" fill="#a6afb7" font-size="20">Source: arXiv:2609.29176v1. Simplified explanatory schematic.</text></g></svg>
