<svg xmlns="http://www.w3.org/2000/svg" width="1200" height="675" viewBox="0 0 1200 675"><rect width="1200" height="675" fill="#11161b"/><g font-family="Arial, sans-serif"><text x="62" y="61" fill="#f19a75" font-size="23" letter-spacing="3">ROBOSKIN.AI / RESEARCH EXPLAINED</text><text x="60" y="137" fill="#f3f0e9" font-size="43" font-weight="bold">The whole hand becomes a contact map</text><text x="62" y="181" fill="#abb5bd" font-size="24">Geometry estimates touch; optimization reallocates force</text><rect x="60" y="232" width="330" height="258" rx="14" fill="#22333b"/><text x="90" y="275" fill="#f19a75" font-size="21">TRACKED GEOMETRY</text><ellipse cx="227" cy="367" rx="82" ry="58" fill="#f3f0e9"/><g fill="#f19a75"><circle cx="134" cy="345" r="10"/><circle cx="168" cy="425" r="10"/><circle cx="262" cy="306" r="10"/><circle cx="320" cy="390" r="10"/></g><path d="M390 361 H450" stroke="#f19a75" stroke-width="5"/><path d="M450 361 l-18-12 v24z" fill="#f19a75"/><rect x="460" y="232" width="300" height="258" rx="14" fill="#283b41"/><text x="490" y="275" fill="#f19a75" font-size="21">REAL-TIME QP</text><text x="490" y="335" fill="#f3f0e9" font-size="31" font-weight="bold">Friction</text><text x="490" y="375" fill="#f3f0e9" font-size="31" font-weight="bold">Torque limits</text><text x="490" y="415" fill="#f3f0e9" font-size="31" font-weight="bold">Actuation</text><text x="490" y="453" fill="#abb5bd" font-size="21">about 84 Hz</text><path d="M760 361 H820" stroke="#f19a75" stroke-width="5"/><path d="M820 361 l-18-12 v24z" fill="#f19a75"/><rect x="830" y="232" width="310" height="258" rx="14" fill="#4e3027"/><text x="860" y="275" fill="#ffddca" font-size="21">HARDWARE LOOP</text><text x="860" y="340" fill="#f3f0e9" font-size="35" font-weight="bold">78 pushes</text><text x="860" y="384" fill="#ffddca" font-size="23">8 object losses</text><text x="860" y="424" fill="#ffddca" font-size="23">6 recovered</text><path d="M60 548 H1140" stroke="#49535c"/><text x="62" y="594" fill="#f3f0e9" font-size="24">No tactile sensing—so pose tracking and object models carry the risk.</text><text x="62" y="632" fill="#a6afb7" font-size="20">Source: arXiv:2609.30082v1. Original explanatory schematic.</text></g></svg>
